<svg
	xmlns="http://www.w3.org/2000/svg"
	viewBox="0 0 20 20.7"
	width="20"
	height="20.7"
	shape-rendering="geometricPrecision"
>
	<path fill="#7A7A7A;" d="M11.3,1.3C11.3,0.6,10.7,0,10,0S8.7,0.6,8.7,1.3v9.3c0,0.7,0.6,1.3,1.3,1.3s1.3-0.6,1.3-1.3V1.3z M5.3,5
	C5.9,4.6,6,3.7,5.5,3.1S4.2,2.5,3.6,3C1.4,4.8,0,7.6,0,10.7c0,5.5,4.5,10,10,10s10-4.5,10-10c0-3.1-1.4-5.9-3.6-7.7
	c-0.6-0.5-1.4-0.4-1.9,0.2C14,3.7,14.1,4.6,14.7,5c1.6,1.3,2.6,3.4,2.6,5.6c0,4.1-3.3,7.3-7.3,7.3s-7.3-3.3-7.3-7.3
	C2.7,8.4,3.7,6.4,5.3,5L5.3,5z"/>
</svg>
