<svg
	xmlns="http://www.w3.org/2000/svg"
	viewBox="0 0 480 496"
	width="20"
	height="20.7"
	shape-rendering="geometricPrecision"
>
	<path
		fill="#58b4ea"
		d="M272,32c0-17.7-14.3-32-32-32s-32,14.3-32,32v224c0,17.7,14.3,32,32,32s32-14.3,32-32V32z M127.5,120.6
	c13.6-11.3,15.4-31.5,4.1-45.1s-31.5-15.4-45.1-4.1C33.7,115.4,0,181.8,0,256c0,132.5,107.5,240,240,240s240-107.5,240-240
	c0-74.2-33.8-140.6-86.6-184.6c-13.6-11.3-33.8-9.4-45.1,4.1s-9.4,33.8,4.1,45.1c38.9,32.3,63.5,81,63.5,135.4
	c0,97.2-78.8,176-176,176s-176-78.8-176-176c0-54.4,24.7-103.1,63.5-135.4L127.5,120.6z"/>
</svg>
